<svg width="16" height="16" viewBox="0 0 16 16" fill="none" xmlns="http://www.w3.org/2000/svg">
    <g clip-path="url(#clip0_164_1420)">
    <path d="M11.9565 10.2215L16 14.265L14.265 16L10.2215 11.9565C9.17344 12.6706 7.90816 13.0876 6.54378 13.0876C2.93002 13.0876 0 10.1575 0 6.54378C0 2.93002 2.93002 0 6.54378 0C10.1575 0 13.0876 2.93002 13.0876 6.54378C13.0876 7.90812 12.6706 9.17344 11.9565 10.2215ZM6.54395 10.6336C8.80294 10.6336 10.6338 8.80278 10.6338 6.54378C10.6338 4.28479 8.80294 2.45392 6.54395 2.45392C4.28495 2.45392 2.45408 4.28479 2.45408 6.54378C2.45408 8.80278 4.28495 10.6336 6.54395 10.6336Z" fill="#726353"/>
    </g>
    <defs>
    <clipPath id="clip0_164_1420">
    <rect width="16" height="16" fill="white"/>
    </clipPath>
    </defs>
</svg>
    